<?xml version="1.0" encoding="UTF-8"?><svg id="a" xmlns="http://www.w3.org/2000/svg" viewBox="0 0 1179.888 866.987"><path d="M484.686,10.266c-144.596,113.292-151.468,332.597-60.758,482.279,78.632,129.752,224.063,199.136,374.845,167.994,24.025-4.962,44.911-15.302,68.206-22.22-26.771,26.103-64.287,49.133-99.028,63.079-101.015,40.55-228.161,15.531-335.442,21.499-161.231-80.364-223.974-282.338-178.962-450.57,30.533-114.116,118.691-222.317,231.139-262.061Z"/><path d="M947.194,768c13.052,3.549,8.197,27.307-3.413,27.307H233.807c-10.427,0-10.423-27.307,0-27.307h713.387Z"/><path d="M356.687,866.987c-16.108-2.67-12.282-27.307-3.413-27.307h467.627c10.427,0,10.423,27.307,0,27.307h-464.213Z"/><path d="M983.021,109.253l-58.944,14.404c-43.968,15.021-43.351,67.884-55.39,105.064-4.722-25.939-10.544-70.576-28.912-90.582-17.323-18.868-61.898-20.776-85.462-27.205,25.642-4.191,64.196-7.154,83.771-25.483,20.115-18.836,26.542-58.792,28.922-85.45,5.177.607,5.407,4.91,6.523,8.811,7.683,26.837,7.343,59.182,30.923,78.303,20.853,16.91,52.798,19.487,78.568,22.139Z"/><path d="M3.407,651.947c-.531-.35-3.324-10.735-3.388-12.259-.476-11.42,7.941-16.103,18.568-15.228,61.459,5.614,134.566-7.045,194.559.461,24.105,3.016,11.782,27.026,7.007,27.026H3.407Z"/><path d="M981.327,651.947c-11.846-3.085-4.075-33.408,13.474-27.486,53.998,4.929,117.939-6.137,170.665.46,24.105,3.016,11.782,27.026,7.007,27.026h-191.147Z"/><path d="M305.487,696.32c10.307,2.902,9.601,27.307-3.413,27.307H121.167c-10.427,0-10.423-27.307,0-27.307h184.32Z"/><path d="M1063.247,696.32c7.131,1.87,9.454,27.307-3.413,27.307h-177.493c-10.427,0-10.423-27.307,0-27.307h180.907Z"/><path d="M730.434,331.12l-26.254,9.547c-19.537,6.009-21.894,28.156-26.64,45.067-6.053-35.7-19.969-49.338-56.347-52.934,33.829-4.891,53.939-16.221,56.347-52.934,3.882,32.291,17.69,52.773,52.894,51.254Z"/><path d="M1075.194,358.426c-3.212,8.4-14.233,6.519-21.756,10.644-13.234,7.256-19.304,26.155-19.231,40.516l-9.522-26.277c-7.793-15.213-25.366-21.445-41.637-21.523l35.948-13.504c7.404-8.59,12.694-19.262,11.852-30.828l15.247,30.793c8.555,6.152,18.208,11.177,29.099,10.18Z"/></svg>